<svg version="1.1"
	 xmlns="http://www.w3.org/2000/svg" xmlns:xlink="http://www.w3.org/1999/xlink" xmlns:a="http://ns.adobe.com/AdobeSVGViewerExtensions/3.0/"
	 x="0px" y="0px" width="659.4px" height="209.1px" viewBox="0 0 659.4 209.1" style="enable-background:new 0 0 659.4 209.1;"
	 xml:space="preserve">
<style type="text/css">
	.st0{fill-rule:evenodd;clip-rule:evenodd;fill:#98CA3F;}
	.st1{fill:#FFFFFF;}
</style>
<defs>
</defs>
<g>
	<g>
		<g>
			<path class="st0" d="M80.9,9.8L9.8,80.9c-13.1,13.1-13.1,34.3,0,47.4l71.1,71.1c13.1,13.1,34.3,13.1,47.4,0l23.7-23.7l-23.7-23.7
				l-23.7,23.7l-71.1-71.1l71.1-71.1l47.4,47.4l-47.4,47.4l23.7,23.7l47.4-47.4c13.1-13.1,13.1-34.3,0-47.4L128.2,9.8
				C115.2-3.3,93.9-3.3,80.9,9.8z"/>
		</g>
	</g>
	<g>
		<path class="st1" d="M229.5,166.6V43.2h51.1c27.5,0,43.6,20.1,43.6,43.6c0,23.1-16.4,42.8-43.6,42.8h-30.5v37H229.5z M280.7,111.6
			c13.9,0,23.8-11.1,23.8-25.4c0-14.3-9.5-25.2-23.8-25.2h-30.9v50.6H280.7z"/>
		<path class="st1" d="M355.9,43.2v92.9c0,14.1,3.7,18.5,18.3,16.2l0.7,14.8c-26.1,4.2-38.1-2.5-38.1-30.9V43.2H355.9z"/>
		<path class="st1" d="M462.9,141.2c0,7.8-0.2,12.7,9.2,11.8v13c-12.2,2.3-24.7,0.9-24.7-13.2v-3.5c-4.8,11.8-16.8,18.5-29.3,18.5
			c-25.9,0-38.4-20.8-38.4-44.8c0.5-28.2,20.6-43.7,48.3-43.2c12.2,0,23.8,3,34.9,7.9V141.2z M444.4,98.9
			c-5.8-2.6-12.3-3.5-17.8-3.5c-16.2,0-27.2,9.3-27.7,27.7c0,15.5,7.6,27.7,23.3,27.7c14.3,0,21.7-11.1,22.2-26.8V98.9z"/>
		<path class="st1" d="M512.4,81.8h29.4v15.5h-29.4v36.5c0,21.7,13.6,23.1,31,16.9l1.9,14.5c-29.1,9-51.8,2.3-51.8-31V97.3h-17.3
			V81.8h17.3V61h18.9V81.8z"/>
		<path class="st1" d="M553.9,162.7l24.7-38.6l18.5-26.8h-40.6V81.6h68.2v2.5l-26.3,40.7L581.3,150h43.4v16.6h-70.7V162.7z"/>
		<path class="st1" d="M647.9,43c5.8,0,11.5,3.9,11.5,11.3c0,7.6-5.6,11.5-11.3,11.5c-5.8,0-11.8-3.7-11.8-11.5
			C636.3,46.7,642.1,43,647.9,43z M657.5,166.6h-19.2V81.8h19.2V166.6z"/>
	</g>
</g>
</svg>
